<?xml version="1.0" encoding="UTF-8" standalone="no"?>
<svg
   xmlns:dc="http://purl.org/dc/elements/1.1/"
   xmlns:cc="http://creativecommons.org/ns#"
   xmlns:rdf="http://www.w3.org/1999/02/22-rdf-syntax-ns#"
   xmlns:svg="http://www.w3.org/2000/svg"
   xmlns="http://www.w3.org/2000/svg"
   xmlns:xlink="http://www.w3.org/1999/xlink"
   xmlns:sodipodi="http://sodipodi.sourceforge.net/DTD/sodipodi-0.dtd"
   xmlns:inkscape="http://www.inkscape.org/namespaces/inkscape"
   version="1.0"
   id="Layer_2"
   x="0px"
   y="0px"
   width="1008px"
   height="600px"
   viewBox="0 0 1008 600"
   enable-background="new 0 0 1008 600"
   xml:space="preserve"
   sodipodi:docname="favicon.svg"
   inkscape:version="1.0.1 (3bc2e813f5, 2020-09-07)"><metadata
   id="metadata188"><rdf:RDF><cc:Work
       rdf:about=""><dc:format>image/svg+xml</dc:format><dc:type
         rdf:resource="http://purl.org/dc/dcmitype/StillImage" /></cc:Work></rdf:RDF></metadata><defs
   id="defs186" /><sodipodi:namedview
   pagecolor="#ffffff"
   bordercolor="#666666"
   borderopacity="1"
   objecttolerance="10"
   gridtolerance="10"
   guidetolerance="10"
   inkscape:pageopacity="0"
   inkscape:pageshadow="2"
   inkscape:window-width="1600"
   inkscape:window-height="837"
   id="namedview184"
   showgrid="false"
   inkscape:zoom="1.3660785"
   inkscape:cx="489.14875"
   inkscape:cy="256.29787"
   inkscape:window-x="-8"
   inkscape:window-y="-8"
   inkscape:window-maximized="1"
   inkscape:current-layer="g151"
   inkscape:document-rotation="0" />
<g
   id="g151">
	<linearGradient
   id="SVGID_1_"
   gradientUnits="userSpaceOnUse"
   x1="185.88229"
   y1="190.1273"
   x2="304.0293"
   y2="188.2218"
   spreadMethod="pad">
		<stop
   offset="0"
   style="stop-color:#0D4D37"
   id="stop2" />
		<stop
   offset="1"
   style="stop-color:#0B2C1F"
   id="stop4" />
	</linearGradient>
	<path
   fill="url(#SVGID_1_)"
   d="m 178.32636,138.25402 c -16.04518,18.60858 -38.71753,17.89277 -42.55383,-1.78951 l 2.09315,-13.04069 -5.23173,8.38913 -6.62716,-6.44107 4.88287,12.49393 c 0,0 6.77148,26.57219 30.52108,20.24886 22.8462,-6.08317 24.59049,-29.16494 47.26284,-29.52284 v -5.00946 c -10e-4,0 -14.30203,-3.93576 -30.34722,14.67165 z"
   id="path7"
   style="fill:#392d3c;fill-opacity:1;stroke-width:1.15098" />
	<path
   fill="#0d4d37"
   d="M 412.98491,419.28875 C 394.87612,296.69505 313.52863,228.42785 290.41993,211.27187 l -2.46133,1.73705 z"
   id="path9"
   style="stroke-width:1.15098" />
	<linearGradient
   id="SVGID_2_"
   gradientUnits="userSpaceOnUse"
   x1="361.6671"
   y1="388.3644"
   x2="407.7641"
   y2="322.985">
		<stop
   offset="0.1429"
   style="stop-color:#8DCF4A"
   id="stop11" />
		<stop
   offset="1"
   style="stop-color:#0D4D37"
   id="stop13" />
	</linearGradient>
	<path
   fill="url(#SVGID_2_)"
   d="M 412.98491,419.28875 C 394.87612,296.69505 313.52863,228.42785 290.41993,211.27187 l -2.46133,1.73705 z"
   id="path16"
   style="fill:#1e605f;fill-opacity:0.996078;stroke-width:1.15098" />
	<path
   fill="#0D4D37"
   d="M 647.50368,89.199289 H 337.55209 l -31.57333,-15.83396 -0.006,0.0058 C 297.39677,64.711531 285.62424,59.37914 272.64605,59.37914 c -19.87693,0 -36.90619,12.512582 -44.0163,30.272452 l -21.13714,14.003648 v 0.006 c -8.51691,4.75881 -14.51453,13.64691 -15.45088,24.04006 l 2.19542,14.72178 c 2.40791,5.86983 6.55102,10.80934 11.77253,14.13655 v 0.006 l 20.22466,13.84043 0.0182,-0.006 c 4.78514,21.75742 23.74505,38.00174 46.39467,38.00174 0.0227,0 0.0455,0 0.0682,0 3.94198,-0.006 7.84078,-0.86036 11.49526,-2.37474 5.51354,-2.28498 10.65778,-4.9162 14.45089,-6.99483 5.82377,-3.19081 10.81687,-7.81789 14.31908,-13.56064 0.0227,-0.0373 0.0455,-0.0758 0.0693,-0.11309 l 26.17569,-14.60753 H 649.342 c 2.76813,0 4.39651,3.19197 2.81813,5.52591 H 340.29409 l -1.26816,0.6855 -48.606,34.30963 c 23.1087,17.15598 104.45733,85.42318 122.56498,208.01688 L 287.9586,213.01009 v 0 l 138.52381,228.54786 c 31.27106,51.59269 103.80961,53.47547 137.5829,3.56969 L 715.1514,221.87253 C 753.06667,165.84745 713.98551,89.199289 647.50368,89.199289 Z M 491.92108,413.01322 387.6842,241.95469 h 220.01674 z"
   id="path18"
   style="fill:#1b5052;fill-opacity:0.992157;stroke-width:1.15098" />
	<linearGradient
   id="SVGID_3_"
   gradientUnits="userSpaceOnUse"
   x1="262.6931"
   y1="181.3943"
   x2="256.3239"
   y2="181.5478">
		<stop
   offset="0"
   style="stop-color:#0D4D37"
   id="stop20" />
		<stop
   offset="1"
   style="stop-color:#0B2C1F"
   id="stop22" />
	</linearGradient>
	<ellipse
   fill="url(#SVGID_3_)"
   cx="195.85333"
   cy="131.72435"
   rx="7.3248768"
   ry="12.882143"
   id="ellipse25"
   style="fill:#194438;fill-opacity:1;stroke-width:1.15098" />
	<linearGradient
   id="SVGID_4_"
   gradientUnits="userSpaceOnUse"
   x1="488.9749"
   y1="537.3871"
   x2="629.8671"
   y2="337.5597">
		<stop
   offset="0.1429"
   style="stop-color:#8DCF4A"
   id="stop27" />
		<stop
   offset="1"
   style="stop-color:#0D4D37"
   id="stop29" />
	</linearGradient>
	<path
   opacity="0.8"
   fill="url(#SVGID_4_)"
   d="m 685.4269,264.86625 c 0,0 -94.04046,-23.80107 -117.18552,81.48625 -17.14062,77.97486 -46.6174,124.68632 -91.01778,132.77934 31.26651,7.59288 66.2557,-3.58602 86.84171,-34.0042 L 685.53145,265.64267 Z"
   id="path32"
   style="fill:#4a6e6f;fill-opacity:0.964706;stroke-width:1.15098" />
	<linearGradient
   id="SVGID_5_"
   gradientUnits="userSpaceOnUse"
   x1="564.98669"
   y1="79.665497"
   x2="560.15222"
   y2="195.00369"
   xlink:href="#SVGID_2_">
		<stop
   offset="0.1429"
   style="stop-color:#8DCF4A"
   id="stop34" />
		<stop
   offset="1"
   style="stop-color:#0D4D37"
   id="stop36" />
	</linearGradient>
	<path
   opacity="0.8"
   fill="url(#SVGID_5_)"
   d="M 715.1514,221.87253 C 753.06667,165.84629 713.98551,89.199289 647.50368,89.199289 H 345.219 c 13.88841,20.672051 49.49349,53.187511 133.67843,44.193331 121.13546,-12.9416 199.95799,-34.15342 229.21773,28.38618 10.02483,21.42516 1.78406,54.20292 -13.0816,89.82176 z"
   id="path39"
   style="fill:#257974;fill-opacity:0.532258;stroke-width:1.15098" />
	<path
   fill="#ffffff"
   d="m 259.16136,83.727001 c -7.6101,6.613611 -8.55326,18.303139 -2.10678,26.110529 l 27.55863,-23.949127 c -6.44762,-7.807394 -17.84175,-8.775012 -25.45185,-2.161402 z"
   id="path41"
   style="stroke-width:1.15098" />
	<path
   fill="#ffffff"
   d="m 259.16136,178.66198 c -7.6101,-6.61361 -8.55326,-18.30313 -2.10678,-26.11053 l 27.55863,23.94913 c -6.44762,7.80739 -17.84175,8.77501 -25.45185,2.1614 z"
   id="path43"
   style="stroke-width:1.15098" />
	<polygon
   fill="#0D4D37"
   points="316.001,148.885 330.274,155.561 328.087,141.748 314.85,136.524 "
   id="polygon45"
   style="fill:#0f5842;fill-opacity:1"
   transform="matrix(1.1363445,0,0,1.1658048,-99.531455,-79.823749)" />
	<polygon
   fill="#0D4D37"
   points="319.73,208.372 313.031,222.635 326.848,220.47 332.093,207.241 "
   id="polygon47"
   style="fill:#0f5842;fill-opacity:1"
   transform="matrix(1.1363445,0,0,1.1658048,-99.531455,-79.823749)" />
	<polygon
   fill="#C69C6D"
   points="604.074,421.174 574.429,421.882 584.108,449.912 "
   id="polygon49"
   style="fill:#0b2c1f;fill-opacity:1"
   transform="matrix(1.1363445,0,0,1.1658048,-99.531455,-79.823749)" />
	<polygon
   fill="#0B2C1F"
   points="625.408,390.326 595.762,391.033 605.441,419.063 "
   id="polygon51"
   style="fill:#42523e;fill-opacity:1"
   transform="matrix(1.1363445,0,0,1.1658048,-99.531455,-79.823749)" />
	<polygon
   fill="#C69C6D"
   points="646.741,359.477 617.095,360.184 626.774,388.214 "
   id="polygon53"
   style="fill:#41273c;fill-opacity:1"
   transform="matrix(1.1363445,0,0,1.1658048,-99.531455,-79.823749)" />
	<polygon
   fill="#0B2C1F"
   points="668.074,328.628 638.429,329.335 648.108,357.365 "
   id="polygon55"
   style="fill:#42523e;fill-opacity:1"
   transform="matrix(1.1363445,0,0,1.1658048,-99.531455,-79.823749)" />
	<polygon
   fill="#C69C6D"
   points="689.408,297.779 659.762,298.486 669.441,326.516 "
   id="polygon57"
   style="fill:#41273c;fill-opacity:1"
   transform="matrix(1.1363445,0,0,1.1658048,-99.531455,-79.823749)" />
	<polygon
   fill="#0B2C1F"
   points="347.736,261.981 377.321,264.003 366.407,291.576 "
   id="polygon59"
   style="fill:#0b2c1f;fill-opacity:1"
   transform="matrix(1.1363445,0,0,1.1658048,-99.531455,-79.823749)" />
	<polygon
   fill="#C69C6D"
   points="366.038,291.576 395.623,293.599 384.709,321.171 "
   id="polygon61"
   style="fill:#41273c;fill-opacity:1"
   transform="matrix(1.1363445,0,0,1.1658048,-99.531455,-79.823749)" />
	<polygon
   fill="#0B2C1F"
   points="384.34,321.171 413.925,323.194 403.011,350.767 "
   id="polygon63"
   style="fill:#42523e;fill-opacity:1"
   transform="matrix(1.1363445,0,0,1.1658048,-99.531455,-79.823749)" />
	<polygon
   fill="#C69C6D"
   points="402.642,350.767 432.227,352.79 421.313,380.362 "
   id="polygon65"
   style="fill:#41273c;fill-opacity:1"
   transform="matrix(1.1363445,0,0,1.1658048,-99.531455,-79.823749)" />
	<polygon
   fill="#0B2C1F"
   points="420.944,380.362 450.529,382.385 439.615,409.958 "
   id="polygon67"
   style="fill:#42523e;fill-opacity:1"
   transform="matrix(1.1363445,0,0,1.1658048,-99.531455,-79.823749)" />
	<polygon
   fill="#C69C6D"
   points="439.247,409.958 468.832,411.981 457.918,439.553 "
   id="polygon69"
   style="fill:#0b2c1f;fill-opacity:1"
   transform="matrix(1.1363445,0,0,1.1658048,-99.531455,-79.823749)" />
	<polygon
   fill="#0b2c1f"
   points="417.626,145.024 435.037,169.029 452.619,145.149 "
   id="polygon71"
   transform="matrix(1.1363445,0,0,1.1658048,-99.531455,-79.823749)" />
	<polygon
   fill="#C69C6D"
   points="453.622,143.559 471.033,167.564 488.615,143.684 "
   id="polygon73"
   style="fill:#41273c;fill-opacity:1"
   transform="matrix(1.1363445,0,0,1.1658048,-99.531455,-77.49214)" />
	<polygon
   fill="#0B2C1F"
   points="487.612,145.024 505.022,169.029 522.604,145.149 "
   id="polygon75"
   style="fill:#42523e;fill-opacity:1"
   transform="matrix(1.1363445,0,0,1.1658048,-99.531455,-79.823749)" />
	<polygon
   fill="#C69C6D"
   points="522.604,145.024 540.015,169.029 557.597,145.149 "
   id="polygon77"
   style="fill:#41273c;fill-opacity:1"
   transform="matrix(1.1363445,0,0,1.1658048,-99.531455,-79.823749)" />
	<polygon
   fill="#0B2C1F"
   points="557.597,145.024 575.008,169.029 592.589,145.149 "
   id="polygon79"
   style="fill:#42523e;fill-opacity:1"
   transform="matrix(1.1363445,0,0,1.1658048,-99.531455,-79.823749)" />
	<polygon
   fill="#C69C6D"
   points="592.589,145.024 610,169.029 627.582,145.149 "
   id="polygon81"
   style="fill:#41273c;fill-opacity:1"
   transform="matrix(1.1363445,0,0,1.1658048,-99.531455,-79.823749)" />
	<polygon
   fill="#0b2c1f"
   points="627.582,145.024 644.993,169.029 662.575,145.149 "
   id="polygon83"
   transform="matrix(1.1363445,0,0,1.1658048,-99.531455,-79.823749)" />
	<linearGradient
   id="SVGID_6_"
   gradientUnits="userSpaceOnUse"
   x1="471.9044"
   y1="372.7509"
   x2="428.6238"
   y2="276.5206">
		<stop
   offset="0"
   style="stop-color:#0D4D37"
   id="stop85" />
		<stop
   offset="1"
   style="stop-color:#0B2C1F"
   id="stop87" />
	</linearGradient>
	<polyline
   fill="url(#SVGID_6_)"
   points="428.757,276.014 402.642,276.778 520.487,422.744  "
   id="polyline90"
   style="fill:#45806e;fill-opacity:0.980392"
   transform="matrix(1.1363445,0,0,1.1658048,-99.531455,-79.823749)" />
	<linearGradient
   id="SVGID_7_"
   gradientUnits="userSpaceOnUse"
   x1="363.076"
   y1="221.203"
   x2="386.1107"
   y2="221.203">
		<stop
   offset="0"
   style="stop-color:#0D4D37"
   id="stop92" />
		<stop
   offset="1"
   style="stop-color:#0B2C1F"
   id="stop94" />
	</linearGradient>
	<polygon
   fill="url(#SVGID_7_)"
   points="364.691,219.678 363.076,227.468 386.111,214.938 "
   id="polygon97"
   style="fill:url(#SVGID_7_)"
   transform="matrix(1.1363445,0,0,1.1658048,-99.531455,-79.823749)" />
	
		<linearGradient
   id="SVGID_8_"
   gradientUnits="userSpaceOnUse"
   x1="356.9312"
   y1="-248.9323"
   x2="384.6397"
   y2="-248.9323"
   gradientTransform="matrix(1,0,0,-1,0,-110.7529)">
		<stop
   offset="0"
   style="stop-color:#0D4D37"
   id="stop99" />
		<stop
   offset="1"
   style="stop-color:#0B2C1F"
   id="stop101" />
	</linearGradient>
	<polygon
   fill="url(#SVGID_8_)"
   points="358.547,139.165 356.931,131.375 384.64,144.984 "
   id="polygon104"
   style="fill:url(#SVGID_8_)"
   transform="matrix(1.1363445,0,0,1.1658048,-99.531455,-79.823749)" />
	<linearGradient
   id="SVGID_9_"
   gradientUnits="userSpaceOnUse"
   x1="497.6606"
   y1="232.347"
   x2="774.7896"
   y2="137.9064">
		<stop
   offset="0"
   style="stop-color:#0D4D37"
   id="stop106" />
		<stop
   offset="1"
   style="stop-color:#0B2C1F"
   id="stop108" />
	</linearGradient>
	<polygon
   fill="url(#SVGID_9_)"
   points="395.623,227.468 659.762,227.468 661.498,219.678 387.053,219.678 356.409,240.582 "
   id="polygon111"
   style="fill:#426b60;fill-opacity:0.560484"
   transform="matrix(1.1363445,0,0,1.1658048,-99.531455,-79.823749)" />
	<polygon
   fill="#0b2c1f"
   points="710.741,266.93 681.095,267.637 690.774,295.667 "
   id="polygon113"
   transform="matrix(1.1363445,0,0,1.1658048,-99.531455,-79.823749)" />
	
	
	
	
	
	
	
	
	
	
	
	
	
	
	
	
	
	
<text
   xml:space="preserve"
   style="font-style:normal;font-variant:normal;font-weight:normal;font-stretch:normal;font-size:24.5542px;line-height:0.75;font-family:Rockwell;-inkscape-font-specification:Rockwell;fill:#000000;fill-opacity:1;stroke:none;stroke-width:1.15098"
   x="468.49313"
   y="221.7265"
   id="text1044"
   transform="scale(0.98728398,1.0128798)"><tspan
     sodipodi:role="line"
     id="tspan1042"
     x="468.49313"
     y="221.7265"
     style="stroke-width:1.15098">C.M.E</tspan></text></g>
<g
   id="g153">
</g>
<g
   id="g155">
</g>
<g
   id="g157">
</g>
<g
   id="g159">
</g>
<g
   id="g161">
</g>
<g
   id="g163">
</g>
<g
   id="g165">
</g>
<g
   id="g167">
</g>
<g
   id="g169">
</g>
<g
   id="g171">
</g>
<g
   id="g173">
</g>
<g
   id="g175">
</g>
<g
   id="g177">
</g>
<g
   id="g179">
</g>
<g
   id="g181">
</g>
</svg>
